<?xml version="1.0" standalone="no"?>
<!DOCTYPE svg PUBLIC "-//W3C//DTD SVG 20010904//EN"
 "http://www.w3.org/TR/2001/REC-SVG-20010904/DTD/svg10.dtd">
<svg version="1.0" xmlns="http://www.w3.org/2000/svg"
 width="146.000000pt" height="146.000000pt" viewBox="0 0 146.000000 146.000000"
 preserveAspectRatio="xMidYMid meet">
<metadata>
Created by potrace 1.11, written by Peter Selinger 2001-2013
</metadata>
<g transform="translate(0.000000,146.000000) scale(0.100000,-0.100000)"
fill="#000000" stroke="none">
<path d="M645 1450 c-3 -6 -6 -45 -5 -88 3 -152 1 -172 -15 -172 -12 0 -15 19
-15 110 0 61 -2 110 -5 110 -14 0 -105 -52 -133 -74 -41 -36 -88 -112 -103
-168 -7 -27 -19 -48 -26 -48 -22 0 -38 -47 -23 -65 11 -13 65 -15 404 -15 292
0 395 3 404 12 18 18 15 46 -6 57 -10 5 -24 29 -31 53 -26 89 -106 185 -190
228 -22 11 -43 20 -46 20 -3 0 -5 -49 -5 -110 0 -103 -1 -110 -20 -110 -19 0
-20 7 -20 135 l0 135 -79 0 c-44 0 -83 -5 -86 -10z"/>
<path d="M391 991 c-11 -7 -11 -18 -1 -62 48 -206 241 -320 438 -260 126 38
231 162 235 278 l2 48 -330 2 c-181 2 -336 -1 -344 -6z"/>
<path d="M415 572 c-27 -21 -66 -59 -86 -86 -82 -109 -109 -199 -109 -368 l0
-118 510 0 510 0 -4 127 c-4 143 -19 205 -71 298 -34 62 -98 132 -151 166
l-31 19 -83 -150 c-46 -82 -87 -147 -90 -145 -4 3 -10 31 -14 62 -9 76 -17 89
-44 72 -16 -10 -26 -10 -48 -1 -14 7 -29 11 -31 8 -2 -2 -9 -36 -15 -76 -12
-83 -15 -82 -71 20 -56 103 -108 194 -115 202 -4 4 -30 -9 -57 -30z"/>
<path d="M670 542 c0 -35 4 -41 31 -53 47 -19 84 4 84 51 l0 35 -57 3 -58 3 0
-39z"/>
</g>
</svg>
